#!OML:ASF H:\GeneralSubjects\Female5\Project 1\Capture day 1\Session 1\Female5.ASF
:FULLY-SPECIFIED
:DEGREES
130
root -22.1783 15.8758 6.622 -172.762 -14.5522 -175.544
lowerback 6.36607 0.0593877 1.94795
upperback -9.38213 0.0411547 3.80819
thorax -13.8643 -0.226416 3.18588
lowerneck -6.48728 2.48059 -1.5299
upperneck 30.581 1.12337 0.23646
head 10.8735 -0.665774 0.277273
rclavicle -1.21259e-014 -3.65764e-014
rhumerus 23.8973 34.5756 -39.7228
rradius 139.018
rwrist -63.3406
rhand -47.6552 -31.6902
rfingers 7.12502
rthumb -20.337 -60.6453
lclavicle -1.21259e-014 -3.65764e-014
lhumerus 23.076 -39.1694 63.3191
lradius 132.897
lwrist 45.6832
lhand -44.8931 53.9295
lfingers 7.12502
lthumb -17.6808 83.1456
rfemur 8.52638 48.5824 41.3232
rtibia -9.36677
rfoot -56.2976 -41.3415
rtoes 27.8727
lfemur -6.89695 -22.592 -5.75922
ltibia 8.8711
lfoot -23.5082 23.1951
ltoes -65.5719
131
root -22.1778 15.8735 6.61862 -172.754 -14.541 -175.564
lowerback 6.26014 0.26764 2.28026
upperback -9.3616 0.341313 3.39597
thorax -13.7741 -0.137539 2.48067
lowerneck -6.53848 2.08229 -1.21075
upperneck 30.1697 0.525141 0.434041
head 10.7342 -0.839382 0.236241
rclavicle -2.36554e-014 -3.18055e-014
rhumerus 21.0613 32.6734 -41.1222
rradius 138.236
rwrist -57.3741
rhand -45.2098 -29.673
rfingers 7.12502
rthumb -17.9855 -58.8614
lclavicle -2.36554e-014 -3.18055e-014
lhumerus 22.9504 -39.1179 62.2941
lradius 132.444
lwrist 39.0932
lhand -44.5047 53.012
lfingers 7.12502
lthumb -17.307 82.2614
rfemur 8.54856 48.5209 41.2969
rtibia -9.42494
rfoot -56.2051 -41.3769
rtoes 27.8584
lfemur -6.89151 -22.5203 -5.78187
ltibia 8.90125
lfoot -23.6115 23.0112
ltoes -65.4471
132
root -22.1772 15.8708 6.61455 -172.747 -14.533 -175.584
lowerback 6.19082 0.467454 2.57024
upperback -9.34962 0.625749 3.01394
thorax -13.7112 -0.0500391 1.84014
lowerneck -6.66128 1.63393 -0.913585
upperneck 29.7051 -0.0985315 0.541394
head 10.5901 -1.03529 0.164818
rclavicle 2.68359e-014 -3.06128e-014
rhumerus 17.7105 30.0539 -42.5
rradius 137.214
rwrist -49.0148
rhand -43.1394 -27.6877
rfingers 7.12502
rthumb -15.9926 -57.0476
lclavicle 2.68359e-014 -3.06128e-014
lhumerus 22.2451 -38.4462 61.2972
lradius 131.673
lwrist 29.8264
lhand -44.1807 52.3896
lfingers 7.12502
lthumb -16.9951 81.6661
rfemur 8.57469 48.4566 41.2812
rtibia -9.46921
rfoot -56.047 -41.3781
rtoes 28.0596
lfemur -6.8971 -22.425 -5.80084
ltibia 8.95682
lfoot -23.7474 22.7461
ltoes -65.2741
133
root -22.1761 15.868 6.60966 -172.738 -14.5324 -175.582
lowerback 6.17213 0.648487 2.80404
upperback -9.34851 0.882517 2.70079
thorax -13.6896 0.0331102 1.31561
lowerneck -6.82515 1.16582 -0.705641
upperneck 29.1894 -0.705961 0.593418
head 10.4348 -1.23895 0.0917715
rclavicle -7.05686e-015 1.86858e-014
rhumerus 13.9899 26.4412 -43.6611
rradius 135.867
rwrist -38.518
rhand -41.9494 -25.9782
rfingers 7.12502
rthumb -14.8464 -55.4263
lclavicle -7.05686e-015 1.86858e-014
lhumerus 20.7681 -36.7722 60.5103
lradius 130.614
lwrist 18.3071
lhand -43.9675 52.3971
lfingers 7.12502
lthumb -16.7899 81.6911
rfemur 8.58419 48.3925 41.2906
rtibia -9.48948
rfoot -55.8424 -41.3372
rtoes 28.425
lfemur -6.92337 -22.3227 -5.7823
ltibia 9.02729
lfoot -23.8819 22.456
ltoes -65.0719
134
root -22.1744 15.8657 6.60364 -172.712 -14.5495 -175.553
lowerback 6.19975 0.794083 2.96128
upperback -9.35858 1.08934 2.49169
thorax -13.7107 0.104712 0.959538
lowerneck -7.00324 0.717776 -0.621945
upperneck 28.6202 -1.2441 0.620038
head 10.2624 -1.42661 0.0397341
rclavicle -3.57812e-015 4.45278e-014
rhumerus 10.1308 21.5558 -44.3549
rradius 134.257
rwrist -26.8914
rhand -42.0674 -24.7716
rfingers 7.12502
rthumb -14.9601 -54.2113
lclavicle -3.57812e-015 4.45278e-014
lhumerus 18.4246 -33.7599 60.0164
lradius 129.487
lwrist 5.64002
lhand -43.9763 53.0153
lfingers 7.12502
lthumb -16.7984 82.3086
rfemur 8.54977 48.326 41.3167
rtibia -9.48143
rfoot -55.6346 -41.258
rtoes 28.8284
lfemur -6.98785 -22.2523 -5.71055
ltibia 9.10285
lfoot -24.0478 22.1716
ltoes -64.822
135
root -22.1721 15.8641 6.59585 -172.649 -14.593 -175.509
lowerback 6.24925 0.886655 3.01194
upperback -9.37101 1.2201 2.41085
thorax -13.7527 0.157179 0.818728
lowerneck -7.13131 0.33209 -0.636608
upperneck 27.9656 -1.64397 0.571711
head 10.0491 -1.56873 -0.00508696
rclavicle -1.27222e-014 -1.43125e-014
rhumerus 6.37727 15.4841 -44.3771
rradius 132.564
rwrist -15.6036
rhand -43.2494 -24.7595
rfingers 7.12502
rthumb -16.0986 -54.1108
lclavicle -1.27222e-014 -1.43125e-014
lhumerus 15.289 -29.2679 59.6835
lradius 128.574
lwrist -6.93915
lhand -44.3755 54.084
lfingers 7.12502
lthumb -17.1826 83.3442
rfemur 8.46502 48.2505 41.3334
rtibia -9.47398
rfoot -55.4565 -41.1829
rtoes 29.0772
lfemur -7.0969 -22.2562 -5.60022
ltibia 9.16358
lfoot -24.2807 21.9158
ltoes -64.5118
136
root -22.1695 15.8636 6.58575 -172.536 -14.6658 -175.457
lowerback 6.29552 0.922754 2.96005
upperback -9.3749 1.26985 2.45464
thorax -13.7888 0.18846 0.887345
lowerneck -7.19471 0.0445231 -0.832842
upperneck 27.2631 -1.89806 0.623756
head 9.80938 -1.65303 0.0333743
rclavicle -2.91716e-014 2.18663e-014
rhumerus 2.8264 8.39465 -43.4912
rradius 131.053
rwrist -5.87046
rhand -44.6501 -26.0424
rfingers 7.12502
rthumb -17.4469 -55.2795
lclavicle -2.91716e-014 2.18663e-014
lhumerus 11.6085 -23.3512 59.2478
lradius 128.029
lwrist -18.4969
lhand -45.1943 55.795
lfingers 7.12502
lthumb -17.9706 84.9848
rfemur 8.32339 48.1644 41.3225
rtibia -9.48716
rfoot -55.3234 -41.1566
rtoes 29.0506
lfemur -7.24706 -22.3557 -5.45854
ltibia 9.18269
lfoot -24.5525 21.7405
ltoes -64.2005
137
root -22.1668 15.8644 6.57307 -172.364 -14.7679 -175.406
lowerback 6.30806 0.893677 2.8098
upperback -9.3619 1.22556 2.62511
thorax -13.7899 0.192487 1.16779
lowerneck -7.28692 -0.119072 -1.20128
upperneck 26.6813 -1.99756 0.793087
head 9.62308 -1.67782 0.155349
rclavicle -4.60187e-014 -3.97569e-015
rhumerus -0.452687 0.904291 -41.6968
rradius 129.735
rwrist 1.88815
rhand -45.7874 -27.7256
rfingers 7.12502
rthumb -18.5412 -56.862
lclavicle -4.60187e-014 -3.97569e-015
lhumerus 7.57703 -16.2267 58.4109
lradius 127.875
lwrist -28.5912
lhand -46.82 58.5795
lfingers 7.12502
lthumb -19.5342 87.6182
rfemur 8.12486 48.0666 41.2677
rtibia -9.53561
rfoot -55.2493 -41.1902
rtoes 28.7673
lfemur -7.43656 -22.5439 -5.29435
ltibia 9.14571
lfoot -24.7954 21.7074
ltoes -64.0078
138
root -22.165 15.8661 6.55765 -172.135 -14.8908 -175.374
lowerback 6.26569 0.813668 2.58567
upperback -9.32698 1.10543 2.87861
thorax -13.7333 0.173046 1.59452
lowerneck -7.38592 -0.162142 -1.676
upperneck 26.308 -1.97353 1.07235
head 9.51484 -1.65673 0.341678
rclavicle -3.99557e-014 -1.78906e-014
rhumerus -3.58353 -6.53424 -38.9818
rradius 128.678
rwrist 7.50851
rhand -46.4186 -29.0337
rfingers 7.12502
rthumb -19.1483 -58.1111
lclavicle -3.99557e-014 -1.78906e-014
lhumerus 3.41464 -8.42007 56.9096
lradius 128.252
lwrist -36.0325
lhand -48.3528 63.4238
lfingers 7.12502
lthumb -21.0073 -92.306
rfemur 7.889 47.9585 41.1554
rtibia -9.62746
rfoot -55.2342 -41.2725
rtoes 28.2843
lfemur -7.65283 -22.7865 -5.13677
ltibia 9.05156
lfoot -24.9298 21.8503
ltoes -64.017
139
root -22.1647 15.8679 6.5397 -171.873 -15.0217 -175.361
lowerback 6.1728 0.702097 2.33471
upperback -9.27659 0.938242 3.16876
thorax -13.6254 0.135446 2.08427
lowerneck -7.49072 -0.113687 -2.18769
upperneck 26.2832 -1.89292 1.42166
head 9.53167 -1.62702 0.558598
rclavicle -3.77691e-014 -5.32743e-014
rhumerus -6.68079 -13.411 -35.4596
rradius 127.884
rwrist 11.0215
rhand -46.6176 -30.157
rfingers 7.12502
rthumb -19.3397 -59.2153
lclavicle -3.77691e-014 -5.32743e-014
lhumerus -0.694332 -0.479276 54.5955
lradius 128.974
lwrist -40.2636
lhand -49.161 69.2239
lfingers 7.12502
lthumb -21.7836 -98.018
rfemur 7.64166 47.8458 41.0108
rtibia -9.73797
rfoot -55.2572 -41.3809
rtoes 27.6795
lfemur -7.87211 -23.0379 -4.99405
ltibia 8.9146
lfoot -24.9175 22.145
ltoes -64.2651
140
root -22.1654 15.8687 6.51977 -171.619 -15.1448 -175.345
lowerback 6.05137 0.589351 2.12048
upperback -9.21773 0.770837 3.43978
thorax -13.4858 0.0919659 2.53092
lowerneck -7.56306 -0.0190701 -2.60386
upperneck 26.6501 -1.83186 1.7424
head 9.68095 -1.62706 0.742819
rclavicle -9.93923e-017 2.38542e-015
rhumerus -9.86261 -19.1398 -31.4015
rradius 127.354
rwrist 12.7874
rhand -46.4215 -31.0172
rfingers 7.12502
rthumb -19.151 -60.0943
lclavicle -9.93923e-017 2.38542e-015
lhumerus -4.56488 7.02651 51.467
lradius 129.791
lwrist -41.4258
lhand -49.0897 73.927
lfingers 7.12502
lthumb -21.7152 -102.729
rfemur 7.41578 47.738 40.8893
rtibia -9.82838
rfoot -55.3051 -41.467
rtoes 27.0733
lfemur -8.06175 -23.263 -4.8566
ltibia 8.76195
lfoot -24.7693 22.5387
ltoes -64.8178
141
root -22.1666 15.8677 6.4987 -171.419 -15.2431 -175.306
lowerback 5.92798 0.515591 2.00171
upperback -9.14802 0.664139 3.62987
thorax -13.3288 0.0633896 2.82199
lowerneck -7.56574 0.0737154 -2.83791
upperneck 27.3796 -1.87641 2.01879
head 9.94982 -1.69103 0.866183
rclavicle 3.11098e-014 1.51076e-014
rhumerus -13.1772 -23.4103 -27.145
rradius 127.111
rwrist 13.3774
rhand -46.0437 -31.3117
rfingers 7.12502
rthumb -18.7877 -60.4244
lclavicle 3.11098e-014 1.51076e-014
lhumerus -7.98213 13.5783 47.7068
lradius 130.548
lwrist -40.3689
lhand -48.4168 76.379
lfingers 7.12502
lthumb -21.0688 -105.254
rfemur 7.23976 47.6462 40.844
rtibia -9.86174
rfoot -55.3437 -41.4879
rtoes 26.6243
lfemur -8.19019 -23.4229 -4.71226
ltibia 8.62403
lfoot -24.4973 22.9725
ltoes -65.4431
